<svg width="45" height="45" xmlns="http://www.w3.org/2000/svg" viewBox="0 0 25 25">
    <title>logo</title>
    <style type="text/css"><![CDATA[
       #Logo {
         fill: #ffffff;
       }
    ]]></style>
    <g id="Logo" data-name="Logo">
        <g id="Smaller" data-name="Small with thick outlines">
            <g id="Ring">
                <path d="M12.5,25A12.5,12.5,0,1,1,25,12.5,12.52,12.52,0,0,1,12.5,25Zm0-24A11.5,11.5,0,1,0,24,12.5,11.51,11.51,0,0,0,12.5,1Z"/>
                <path d="M12.5,20.5a8,8,0,1,1,8-8A8,8,0,0,1,12.5,20.5Zm0-15a7,7,0,1,0,7,7A7,7,0,0,0,12.5,5.5Z"/>
                <path d="M14.75,23.33C9.1,23.33,4.5,18.47,4.5,12.5h1c0,5.42,4.16,9.83,9.27,9.83S24,17.92,24,12.5h1C25,18.47,20.4,23.33,14.75,23.33Z"/>
                <path d="M20.5,12.54h-1c0-5.42-4.16-9.83-9.27-9.83S1,7.12,1,12.54H0c0-6,4.6-10.83,10.25-10.83S20.5,6.57,20.5,12.54Z"/>
            </g>
            <path d="M10,14.87c.15,1.1,1.17,1.77,2.64,1.77S15,15.91,15,14.9s-.57-1.42-2-1.74l-1.13-.24c-2.05-.45-2.94-1.38-2.94-2.84,0-1.68,1.49-2.87,3.61-2.87s3.52,1.22,3.58,3H14.85a2.08,2.08,0,0,0-2.33-1.81c-1.28,0-2.27.62-2.27,1.67,0,.81.55,1.36,1.95,1.66l1.13.25c2.14.47,3,1.32,3,2.77,0,1.89-1.49,3.08-3.78,3.08s-3.72-1.15-3.84-2.92Z"/>
        </g>
    </g>
</svg>